<mxfile host="drawio-plugin" modified="2022-07-22T12:36:08.304Z" agent="5.0 (Windows NT 6.2; Win64; x64) AppleWebKit/537.36 (KHTML, like Gecko) Chrome/89.0.4389.114 Safari/537.36" etag="bJAYUptGAcSX_7H2koq6" version="15.5.4" type="embed"><diagram id="C5RBs43oDa-KdzZeNtuy" name="Page-1"><mxGraphModel dx="788" dy="447" grid="1" gridSize="10" guides="1" tooltips="1" connect="1" arrows="1" fold="1" page="1" pageScale="1" pageWidth="827" pageHeight="1169" math="0" shadow="0"><root><mxCell id="WIyWlLk6GJQsqaUBKTNV-0"/><mxCell id="WIyWlLk6GJQsqaUBKTNV-1" parent="WIyWlLk6GJQsqaUBKTNV-0"/><mxCell id="zkfFHV4jXpPFQw0GAbJ--0" value="Online Store&#10;" style="swimlane;fontStyle=2;align=center;verticalAlign=top;childLayout=stackLayout;horizontal=1;startSize=26;horizontalStack=0;resizeParent=1;resizeLast=0;collapsible=1;marginBottom=0;rounded=0;shadow=0;strokeWidth=1;" parent="WIyWlLk6GJQsqaUBKTNV-1" vertex="1"><mxGeometry x="315" y="12" width="187" height="138" as="geometry"><mxRectangle x="230" y="140" width="160" height="26" as="alternateBounds"/></mxGeometry></mxCell><mxCell id="zkfFHV4jXpPFQw0GAbJ--4" value="" style="line;html=1;strokeWidth=1;align=left;verticalAlign=middle;spacingTop=-1;spacingLeft=3;spacingRight=3;rotatable=0;labelPosition=right;points=[];portConstraint=eastwest;" parent="zkfFHV4jXpPFQw0GAbJ--0" vertex="1"><mxGeometry y="26" width="187" height="8" as="geometry"/></mxCell><mxCell id="iP3zQAs6bcsVXuft5WRT-2" value="Интернет-магазин, позволяет&amp;nbsp;&lt;br&gt;пользователю&lt;br&gt;&amp;nbsp;покупать какие-либо товары." style="text;html=1;align=center;verticalAlign=middle;resizable=0;points=[];autosize=1;strokeColor=none;fillColor=none;" parent="zkfFHV4jXpPFQw0GAbJ--0" vertex="1"><mxGeometry y="34" width="187" height="60" as="geometry"/></mxCell><mxCell id="zkfFHV4jXpPFQw0GAbJ--6" value="User" style="swimlane;fontStyle=0;align=center;verticalAlign=top;childLayout=stackLayout;horizontal=1;startSize=26;horizontalStack=0;resizeParent=1;resizeLast=0;collapsible=1;marginBottom=0;rounded=0;shadow=0;strokeWidth=1;" parent="WIyWlLk6GJQsqaUBKTNV-1" vertex="1"><mxGeometry x="50" y="130" width="160" height="240" as="geometry"><mxRectangle x="130" y="380" width="160" height="26" as="alternateBounds"/></mxGeometry></mxCell><mxCell id="zkfFHV4jXpPFQw0GAbJ--7" value="id" style="text;align=left;verticalAlign=top;spacingLeft=4;spacingRight=4;overflow=hidden;rotatable=0;points=[[0,0.5],[1,0.5]];portConstraint=eastwest;" parent="zkfFHV4jXpPFQw0GAbJ--6" vertex="1"><mxGeometry y="26" width="160" height="26" as="geometry"/></mxCell><mxCell id="zkfFHV4jXpPFQw0GAbJ--8" value="name" style="text;align=left;verticalAlign=top;spacingLeft=4;spacingRight=4;overflow=hidden;rotatable=0;points=[[0,0.5],[1,0.5]];portConstraint=eastwest;rounded=0;shadow=0;html=0;" parent="zkfFHV4jXpPFQw0GAbJ--6" vertex="1"><mxGeometry y="52" width="160" height="26" as="geometry"/></mxCell><mxCell id="zkfFHV4jXpPFQw0GAbJ--11" value="lastName" style="text;align=left;verticalAlign=top;spacingLeft=4;spacingRight=4;overflow=hidden;rotatable=0;points=[[0,0.5],[1,0.5]];portConstraint=eastwest;" parent="zkfFHV4jXpPFQw0GAbJ--6" vertex="1"><mxGeometry y="78" width="160" height="26" as="geometry"/></mxCell><mxCell id="zkfFHV4jXpPFQw0GAbJ--10" value="orderNumber" style="text;align=left;verticalAlign=top;spacingLeft=4;spacingRight=4;overflow=hidden;rotatable=0;points=[[0,0.5],[1,0.5]];portConstraint=eastwest;fontStyle=4" parent="zkfFHV4jXpPFQw0GAbJ--6" vertex="1"><mxGeometry y="104" width="160" height="26" as="geometry"/></mxCell><mxCell id="iP3zQAs6bcsVXuft5WRT-42" value="email" style="text;align=left;verticalAlign=top;spacingLeft=4;spacingRight=4;overflow=hidden;rotatable=0;points=[[0,0.5],[1,0.5]];portConstraint=eastwest;fontStyle=4" parent="zkfFHV4jXpPFQw0GAbJ--6" vertex="1"><mxGeometry y="130" width="160" height="26" as="geometry"/></mxCell><mxCell id="iP3zQAs6bcsVXuft5WRT-43" value="password" style="text;align=left;verticalAlign=top;spacingLeft=4;spacingRight=4;overflow=hidden;rotatable=0;points=[[0,0.5],[1,0.5]];portConstraint=eastwest;fontStyle=4" parent="zkfFHV4jXpPFQw0GAbJ--6" vertex="1"><mxGeometry y="156" width="160" height="26" as="geometry"/></mxCell><mxCell id="iP3zQAs6bcsVXuft5WRT-44" value="activity" style="text;align=left;verticalAlign=top;spacingLeft=4;spacingRight=4;overflow=hidden;rotatable=0;points=[[0,0.5],[1,0.5]];portConstraint=eastwest;fontStyle=4" parent="zkfFHV4jXpPFQw0GAbJ--6" vertex="1"><mxGeometry y="182" width="160" height="26" as="geometry"/></mxCell><mxCell id="0" value="role" style="text;align=left;verticalAlign=top;spacingLeft=4;spacingRight=4;overflow=hidden;rotatable=0;points=[[0,0.5],[1,0.5]];portConstraint=eastwest;fontStyle=4" vertex="1" parent="zkfFHV4jXpPFQw0GAbJ--6"><mxGeometry y="208" width="160" height="26" as="geometry"/></mxCell><mxCell id="zkfFHV4jXpPFQw0GAbJ--13" value="Order" style="swimlane;fontStyle=0;align=center;verticalAlign=top;childLayout=stackLayout;horizontal=1;startSize=26;horizontalStack=0;resizeParent=1;resizeLast=0;collapsible=1;marginBottom=0;rounded=0;shadow=0;strokeWidth=1;" parent="WIyWlLk6GJQsqaUBKTNV-1" vertex="1"><mxGeometry x="320" y="200" width="160" height="251" as="geometry"><mxRectangle x="340" y="380" width="170" height="26" as="alternateBounds"/></mxGeometry></mxCell><mxCell id="zkfFHV4jXpPFQw0GAbJ--15" value="" style="line;html=1;strokeWidth=1;align=left;verticalAlign=middle;spacingTop=-1;spacingLeft=3;spacingRight=3;rotatable=0;labelPosition=right;points=[];portConstraint=eastwest;" parent="zkfFHV4jXpPFQw0GAbJ--13" vertex="1"><mxGeometry y="26" width="160" height="8" as="geometry"/></mxCell><mxCell id="iP3zQAs6bcsVXuft5WRT-34" value="productTitle" style="text;align=left;verticalAlign=top;spacingLeft=4;spacingRight=4;overflow=hidden;rotatable=0;points=[[0,0.5],[1,0.5]];portConstraint=eastwest;" parent="zkfFHV4jXpPFQw0GAbJ--13" vertex="1"><mxGeometry y="34" width="160" height="31" as="geometry"/></mxCell><mxCell id="iP3zQAs6bcsVXuft5WRT-36" value="id" style="text;align=left;verticalAlign=top;spacingLeft=4;spacingRight=4;overflow=hidden;rotatable=0;points=[[0,0.5],[1,0.5]];portConstraint=eastwest;" parent="zkfFHV4jXpPFQw0GAbJ--13" vertex="1"><mxGeometry y="65" width="160" height="31" as="geometry"/></mxCell><mxCell id="iP3zQAs6bcsVXuft5WRT-37" value="number" style="text;align=left;verticalAlign=top;spacingLeft=4;spacingRight=4;overflow=hidden;rotatable=0;points=[[0,0.5],[1,0.5]];portConstraint=eastwest;" parent="zkfFHV4jXpPFQw0GAbJ--13" vertex="1"><mxGeometry y="96" width="160" height="31" as="geometry"/></mxCell><mxCell id="iP3zQAs6bcsVXuft5WRT-38" value="buyer" style="text;align=left;verticalAlign=top;spacingLeft=4;spacingRight=4;overflow=hidden;rotatable=0;points=[[0,0.5],[1,0.5]];portConstraint=eastwest;" parent="zkfFHV4jXpPFQw0GAbJ--13" vertex="1"><mxGeometry y="127" width="160" height="31" as="geometry"/></mxCell><mxCell id="iP3zQAs6bcsVXuft5WRT-39" value="amount" style="text;align=left;verticalAlign=top;spacingLeft=4;spacingRight=4;overflow=hidden;rotatable=0;points=[[0,0.5],[1,0.5]];portConstraint=eastwest;" parent="zkfFHV4jXpPFQw0GAbJ--13" vertex="1"><mxGeometry y="158" width="160" height="31" as="geometry"/></mxCell><mxCell id="iP3zQAs6bcsVXuft5WRT-40" value="ordertimes" style="text;align=left;verticalAlign=top;spacingLeft=4;spacingRight=4;overflow=hidden;rotatable=0;points=[[0,0.5],[1,0.5]];portConstraint=eastwest;" parent="zkfFHV4jXpPFQw0GAbJ--13" vertex="1"><mxGeometry y="189" width="160" height="31" as="geometry"/></mxCell><mxCell id="iP3zQAs6bcsVXuft5WRT-41" value="totalCost" style="text;align=left;verticalAlign=top;spacingLeft=4;spacingRight=4;overflow=hidden;rotatable=0;points=[[0,0.5],[1,0.5]];portConstraint=eastwest;" parent="zkfFHV4jXpPFQw0GAbJ--13" vertex="1"><mxGeometry y="220" width="160" height="31" as="geometry"/></mxCell><mxCell id="iP3zQAs6bcsVXuft5WRT-7" value="" style="curved=1;endArrow=classic;html=1;rounded=0;entryX=0.556;entryY=-0.029;entryDx=0;entryDy=0;entryPerimeter=0;" parent="WIyWlLk6GJQsqaUBKTNV-1" target="zkfFHV4jXpPFQw0GAbJ--6" edge="1"><mxGeometry width="50" height="50" relative="1" as="geometry"><mxPoint x="310" y="100" as="sourcePoint"/><mxPoint x="220" y="56" as="targetPoint"/><Array as="points"><mxPoint x="220" y="106"/><mxPoint x="170" y="56"/></Array></mxGeometry></mxCell><mxCell id="iP3zQAs6bcsVXuft5WRT-12" style="edgeStyle=none;rounded=0;orthogonalLoop=1;jettySize=auto;html=1;exitX=1;exitY=0.5;exitDx=0;exitDy=0;entryX=0;entryY=0.5;entryDx=0;entryDy=0;" parent="WIyWlLk6GJQsqaUBKTNV-1" source="zkfFHV4jXpPFQw0GAbJ--10" target="iP3zQAs6bcsVXuft5WRT-37" edge="1"><mxGeometry relative="1" as="geometry"><mxPoint x="320" y="221" as="targetPoint"/></mxGeometry></mxCell><mxCell id="iP3zQAs6bcsVXuft5WRT-13" value="Пользователь может иметь заказы" style="text;html=1;strokeColor=none;fillColor=none;align=center;verticalAlign=middle;whiteSpace=wrap;rounded=0;" parent="WIyWlLk6GJQsqaUBKTNV-1" vertex="1"><mxGeometry x="230" y="240" width="60" height="30" as="geometry"/></mxCell><mxCell id="iP3zQAs6bcsVXuft5WRT-19" value="Product" style="swimlane;fontStyle=0;childLayout=stackLayout;horizontal=1;startSize=30;horizontalStack=0;resizeParent=1;resizeParentMax=0;resizeLast=0;collapsible=1;marginBottom=0;" parent="WIyWlLk6GJQsqaUBKTNV-1" vertex="1"><mxGeometry x="687" y="210" width="140" height="180" as="geometry"/></mxCell><mxCell id="iP3zQAs6bcsVXuft5WRT-20" value="id" style="text;strokeColor=none;fillColor=none;align=left;verticalAlign=middle;spacingLeft=4;spacingRight=4;overflow=hidden;points=[[0,0.5],[1,0.5]];portConstraint=eastwest;rotatable=0;" parent="iP3zQAs6bcsVXuft5WRT-19" vertex="1"><mxGeometry y="30" width="140" height="30" as="geometry"/></mxCell><mxCell id="iP3zQAs6bcsVXuft5WRT-21" value="title" style="text;strokeColor=none;fillColor=none;align=left;verticalAlign=middle;spacingLeft=4;spacingRight=4;overflow=hidden;points=[[0,0.5],[1,0.5]];portConstraint=eastwest;rotatable=0;" parent="iP3zQAs6bcsVXuft5WRT-19" vertex="1"><mxGeometry y="60" width="140" height="30" as="geometry"/></mxCell><mxCell id="iP3zQAs6bcsVXuft5WRT-22" value="price" style="text;strokeColor=none;fillColor=none;align=left;verticalAlign=middle;spacingLeft=4;spacingRight=4;overflow=hidden;points=[[0,0.5],[1,0.5]];portConstraint=eastwest;rotatable=0;" parent="iP3zQAs6bcsVXuft5WRT-19" vertex="1"><mxGeometry y="90" width="140" height="30" as="geometry"/></mxCell><mxCell id="iP3zQAs6bcsVXuft5WRT-28" value="description" style="text;strokeColor=none;fillColor=none;align=left;verticalAlign=middle;spacingLeft=4;spacingRight=4;overflow=hidden;points=[[0,0.5],[1,0.5]];portConstraint=eastwest;rotatable=0;" parent="iP3zQAs6bcsVXuft5WRT-19" vertex="1"><mxGeometry y="120" width="140" height="30" as="geometry"/></mxCell><mxCell id="iP3zQAs6bcsVXuft5WRT-29" value="limageUrl" style="text;strokeColor=none;fillColor=none;align=left;verticalAlign=middle;spacingLeft=4;spacingRight=4;overflow=hidden;points=[[0,0.5],[1,0.5]];portConstraint=eastwest;rotatable=0;" parent="iP3zQAs6bcsVXuft5WRT-19" vertex="1"><mxGeometry y="150" width="140" height="30" as="geometry"/></mxCell><mxCell id="iP3zQAs6bcsVXuft5WRT-35" value="" style="endArrow=classic;html=1;rounded=0;exitX=1;exitY=0.5;exitDx=0;exitDy=0;entryX=0;entryY=0.5;entryDx=0;entryDy=0;" parent="WIyWlLk6GJQsqaUBKTNV-1" source="iP3zQAs6bcsVXuft5WRT-34" target="iP3zQAs6bcsVXuft5WRT-21" edge="1"><mxGeometry width="50" height="50" relative="1" as="geometry"><mxPoint x="520" y="320" as="sourcePoint"/><mxPoint x="590" y="280" as="targetPoint"/></mxGeometry></mxCell><mxCell id="iP3zQAs6bcsVXuft5WRT-50" value="" style="curved=1;endArrow=classic;html=1;rounded=0;exitX=0;exitY=0.5;exitDx=0;exitDy=0;" parent="WIyWlLk6GJQsqaUBKTNV-1" source="iP3zQAs6bcsVXuft5WRT-38" edge="1"><mxGeometry width="50" height="50" relative="1" as="geometry"><mxPoint y="250" as="sourcePoint"/><mxPoint x="50" y="200" as="targetPoint"/><Array as="points"><mxPoint x="30" y="500"/><mxPoint y="200"/></Array></mxGeometry></mxCell><mxCell id="iP3zQAs6bcsVXuft5WRT-53" value="Заказ должен содержать имя &lt;br&gt;пользователя" style="edgeLabel;html=1;align=center;verticalAlign=middle;resizable=0;points=[];" parent="iP3zQAs6bcsVXuft5WRT-50" vertex="1" connectable="0"><mxGeometry x="-0.4837" y="-18" relative="1" as="geometry"><mxPoint x="-37" y="29" as="offset"/></mxGeometry></mxCell><mxCell id="1" value="Заказ содержит в себе итемы &lt;br&gt;и их количество" style="text;html=1;align=center;verticalAlign=middle;resizable=0;points=[];autosize=1;strokeColor=none;fillColor=none;" vertex="1" parent="WIyWlLk6GJQsqaUBKTNV-1"><mxGeometry x="500" y="235" width="180" height="30" as="geometry"/></mxCell></root></mxGraphModel></diagram></mxfile>